<svg xmlns="http://www.w3.org/2000/svg" viewBox="0 0 800 1000">
  <rect width="800" height="1000" fill="#F7F4EF"/>
  <g stroke="#5E7D55" stroke-width="14" stroke-linecap="round" fill="none">
    <path d="M160 420 L160 620"/><path d="M280 380 L280 620"/><path d="M400 350 L400 620"/><path d="M520 380 L520 620"/><path d="M640 420 L640 620"/>
  </g>
  <path d="M100 600 L700 600 L660 840 L140 840 Z" fill="#D9CBB6"/>
  <path d="M100 600 L700 600 L690 650 L110 650 Z" fill="#CBBBA2"/>
  <g>
    <circle cx="160" cy="360" r="75" fill="#A63A3A"/>
    <g fill="#C75B5B"><circle cx="125" cy="335" r="29"/><circle cx="160" cy="315" r="29"/><circle cx="195" cy="335" r="29"/><circle cx="198" cy="380" r="28"/><circle cx="160" cy="402" r="29"/><circle cx="122" cy="380" r="28"/></g>
    <circle cx="160" cy="360" r="22" fill="#8F2F2F"/>
  </g>
  <g>
    <circle cx="280" cy="320" r="75" fill="#D98A9E"/>
    <g fill="#EBACBC"><circle cx="245" cy="295" r="29"/><circle cx="280" cy="275" r="29"/><circle cx="315" cy="295" r="29"/><circle cx="318" cy="340" r="28"/><circle cx="280" cy="362" r="29"/><circle cx="242" cy="340" r="28"/></g>
    <circle cx="280" cy="320" r="22" fill="#C4718A"/>
  </g>
  <g>
    <circle cx="400" cy="290" r="78" fill="#E8C558"/>
    <g fill="#F2D67E"><circle cx="363" cy="264" r="30"/><circle cx="400" cy="243" r="30"/><circle cx="437" cy="264" r="30"/><circle cx="440" cy="311" r="29"/><circle cx="400" cy="334" r="30"/><circle cx="360" cy="311" r="29"/></g>
    <circle cx="400" cy="290" r="23" fill="#B98F2C"/>
  </g>
  <g>
    <circle cx="520" cy="320" r="75" fill="#8FA9C9"/>
    <g fill="#A9BDD8"><circle cx="485" cy="295" r="29"/><circle cx="520" cy="275" r="29"/><circle cx="555" cy="295" r="29"/><circle cx="558" cy="340" r="28"/><circle cx="520" cy="362" r="29"/><circle cx="482" cy="340" r="28"/></g>
    <circle cx="520" cy="320" r="22" fill="#6D89AC"/>
  </g>
  <g>
    <circle cx="640" cy="360" r="75" fill="#C9A8D8"/>
    <g fill="#DABEE6"><circle cx="605" cy="335" r="29"/><circle cx="640" cy="315" r="29"/><circle cx="675" cy="335" r="29"/><circle cx="678" cy="380" r="28"/><circle cx="640" cy="402" r="29"/><circle cx="602" cy="380" r="28"/></g>
    <circle cx="640" cy="360" r="22" fill="#A886BB"/>
  </g>
  <g fill="#7C9A73">
    <path d="M220 560 C 180 540, 165 545, 140 525 C 185 518, 208 535, 220 560 Z"/>
    <path d="M580 560 C 620 540, 635 545, 660 525 C 615 518, 592 535, 580 560 Z"/>
  </g>
  <text x="400" y="950" text-anchor="middle" font-family="Georgia, serif" font-size="34" fill="#7A827A" font-style="italic">sample art — real photo coming soon</text>
</svg>
